ISO-10303-21;
HEADER;
/* Generated by software containing ST-Developer
 * from STEP Tools, Inc. (www.steptools.com) 
 */

FILE_DESCRIPTION(
/* description */ (''),
/* implementation_level */ '2;1');

FILE_NAME(
/* name */ 'base_support.step',
/* time_stamp */ '2026-09-22T21:10:11+05:30',
/* author */ (''),
/* organization */ (''),
/* preprocessor_version */ 'ST-DEVELOPER v20.2',
/* originating_system */ 'Autodesk Translation Framework v15.15.0.0',
/* authorisation */ '');

FILE_SCHEMA (('AUTOMOTIVE_DESIGN { 1 0 10303 214 3 1 1 }'));
ENDSEC;

DATA;
#10=MECHANICAL_DESIGN_GEOMETRIC_PRESENTATION_REPRESENTATION('',(#13,#14),
#571);
#11=SHAPE_REPRESENTATION_RELATIONSHIP('SRR','None',#578,#12);
#12=ADVANCED_BREP_SHAPE_REPRESENTATION('',(#15,#16),#570);
#13=STYLED_ITEM('',(#587),#15);
#14=STYLED_ITEM('',(#587),#16);
#15=MANIFOLD_SOLID_BREP('Body1',#295);
#16=MANIFOLD_SOLID_BREP('Body2',#296);
#17=PLANE('',#310);
#18=PLANE('',#311);
#19=PLANE('',#312);
#20=PLANE('',#313);
#21=PLANE('',#314);
#22=PLANE('',#315);
#23=PLANE('',#316);
#24=PLANE('',#317);
#25=PLANE('',#318);
#26=PLANE('',#319);
#27=PLANE('',#320);
#28=PLANE('',#321);
#29=PLANE('',#322);
#30=PLANE('',#323);
#31=FACE_OUTER_BOUND('',#48,.T.);
#32=FACE_OUTER_BOUND('',#49,.T.);
#33=FACE_OUTER_BOUND('',#50,.T.);
#34=FACE_OUTER_BOUND('',#51,.T.);
#35=FACE_OUTER_BOUND('',#52,.T.);
#36=FACE_OUTER_BOUND('',#53,.T.);
#37=FACE_OUTER_BOUND('',#54,.T.);
#38=FACE_OUTER_BOUND('',#55,.T.);
#39=FACE_OUTER_BOUND('',#56,.T.);
#40=FACE_OUTER_BOUND('',#57,.T.);
#41=FACE_OUTER_BOUND('',#58,.T.);
#42=FACE_OUTER_BOUND('',#59,.T.);
#43=FACE_OUTER_BOUND('',#60,.T.);
#44=FACE_OUTER_BOUND('',#61,.T.);
#45=FACE_OUTER_BOUND('',#62,.T.);
#46=FACE_OUTER_BOUND('',#63,.T.);
#47=FACE_OUTER_BOUND('',#64,.T.);
#48=EDGE_LOOP('',(#199,#200,#201,#202));
#49=EDGE_LOOP('',(#203,#204,#205,#206));
#50=EDGE_LOOP('',(#207,#208,#209,#210,#211));
#51=EDGE_LOOP('',(#212,#213,#214,#215,#216,#217));
#52=EDGE_LOOP('',(#218,#219,#220,#221));
#53=EDGE_LOOP('',(#222,#223,#224,#225,#226,#227));
#54=EDGE_LOOP('',(#228,#229,#230,#231));
#55=EDGE_LOOP('',(#232,#233,#234,#235));
#56=EDGE_LOOP('',(#236,#237,#238,#239,#240));
#57=EDGE_LOOP('',(#241,#242,#243,#244));
#58=EDGE_LOOP('',(#245,#246,#247,#248));
#59=EDGE_LOOP('',(#249,#250,#251,#252));
#60=EDGE_LOOP('',(#253,#254,#255,#256));
#61=EDGE_LOOP('',(#257,#258,#259,#260));
#62=EDGE_LOOP('',(#261,#262,#263,#264));
#63=EDGE_LOOP('',(#265,#266,#267,#268,#269));
#64=EDGE_LOOP('',(#270,#271,#272,#273,#274));
#65=(
BOUNDED_CURVE()
B_SPLINE_CURVE(5,(#421,#422,#423,#424,#425,#426,#427,#428,#429,#430),
 .UNSPECIFIED.,.F.,.F.)
B_SPLINE_CURVE_WITH_KNOTS((6,1,1,1,1,6),(-0.816972304177415,-0.8,-0.6,-0.4,
-0.2,-0.183027690940214),.UNSPECIFIED.)
CURVE()
GEOMETRIC_REPRESENTATION_ITEM()
RATIONAL_B_SPLINE_CURVE((1.,1.,1.,1.,1.,1.,1.,1.,1.,1.))
REPRESENTATION_ITEM('')
);
#66=(
BOUNDED_CURVE()
B_SPLINE_CURVE(5,(#484,#485,#486,#487,#488,#489,#490,#491,#492,#493),
 .UNSPECIFIED.,.F.,.F.)
B_SPLINE_CURVE_WITH_KNOTS((6,1,1,1,1,6),(-0.816972336188718,-0.8,-0.6,-0.4,
-0.2,-0.183027672461087),.UNSPECIFIED.)
CURVE()
GEOMETRIC_REPRESENTATION_ITEM()
RATIONAL_B_SPLINE_CURVE((1.,1.,1.,1.,1.,1.,1.,1.,1.,1.))
REPRESENTATION_ITEM('')
);
#67=(
BOUNDED_CURVE()
B_SPLINE_CURVE(5,(#535,#536,#537,#538,#539,#540,#541,#542,#543,#544),
 .UNSPECIFIED.,.F.,.F.)
B_SPLINE_CURVE_WITH_KNOTS((6,1,1,1,1,6),(0.183027690940214,0.2,0.4,0.6,
0.8,0.816972304177415),.UNSPECIFIED.)
CURVE()
GEOMETRIC_REPRESENTATION_ITEM()
RATIONAL_B_SPLINE_CURVE((1.,1.,1.,1.,1.,1.,1.,1.,1.,1.))
REPRESENTATION_ITEM('')
);
#68=(
BOUNDED_CURVE()
B_SPLINE_CURVE(5,(#546,#547,#548,#549,#550,#551,#552,#553,#554,#555),
 .UNSPECIFIED.,.F.,.F.)
B_SPLINE_CURVE_WITH_KNOTS((6,1,1,1,1,6),(0.183027690940214,0.2,0.4,0.6,
0.8,0.816972304177415),.UNSPECIFIED.)
CURVE()
GEOMETRIC_REPRESENTATION_ITEM()
RATIONAL_B_SPLINE_CURVE((1.,1.,1.,1.,1.,1.,1.,1.,1.,1.))
REPRESENTATION_ITEM('')
);
#69=LINE('',#419,#102);
#70=LINE('',#431,#103);
#71=LINE('',#434,#104);
#72=LINE('',#436,#105);
#73=LINE('',#437,#106);
#74=LINE('',#440,#107);
#75=LINE('',#442,#108);
#76=LINE('',#443,#109);
#77=LINE('',#447,#110);
#78=LINE('',#449,#111);
#79=LINE('',#450,#112);
#80=LINE('',#451,#113);
#81=LINE('',#454,#114);
#82=LINE('',#456,#115);
#83=LINE('',#457,#116);
#84=LINE('',#460,#117);
#85=LINE('',#461,#118);
#86=LINE('',#462,#119);
#87=LINE('',#494,#120);
#88=LINE('',#496,#121);
#89=LINE('',#502,#122);
#90=LINE('',#504,#123);
#91=LINE('',#506,#124);
#92=LINE('',#507,#125);
#93=LINE('',#510,#126);
#94=LINE('',#512,#127);
#95=LINE('',#513,#128);
#96=LINE('',#556,#129);
#97=LINE('',#559,#130);
#98=LINE('',#561,#131);
#99=LINE('',#562,#132);
#100=LINE('',#564,#133);
#101=LINE('',#565,#134);
#102=VECTOR('',#326,10.);
#103=VECTOR('',#327,10.);
#104=VECTOR('',#330,10.);
#105=VECTOR('',#331,10.);
#106=VECTOR('',#332,10.);
#107=VECTOR('',#335,10.);
#108=VECTOR('',#336,10.);
#109=VECTOR('',#337,10.);
#110=VECTOR('',#340,10.);
#111=VECTOR('',#341,10.);
#112=VECTOR('',#342,10.);
#113=VECTOR('',#343,10.);
#114=VECTOR('',#346,10.);
#115=VECTOR('',#347,10.);
#116=VECTOR('',#348,10.);
#117=VECTOR('',#351,10.);
#118=VECTOR('',#352,10.);
#119=VECTOR('',#353,10.);
#120=VECTOR('',#354,10.);
#121=VECTOR('',#357,10.);
#122=VECTOR('',#364,10.);
#123=VECTOR('',#365,10.);
#124=VECTOR('',#366,10.);
#125=VECTOR('',#367,10.);
#126=VECTOR('',#370,10.);
#127=VECTOR('',#371,10.);
#128=VECTOR('',#372,10.);
#129=VECTOR('',#373,10.);
#130=VECTOR('',#376,10.);
#131=VECTOR('',#377,10.);
#132=VECTOR('',#378,10.);
#133=VECTOR('',#381,10.);
#134=VECTOR('',#382,10.);
#135=B_SPLINE_CURVE_WITH_KNOTS('',3,(#410,#411,#412,#413,#414,#415,#416,
#417),.UNSPECIFIED.,.F.,.F.,(4,2,2,4),(-1.79660151519216,-1.10868160584889,
-0.446553659780092,0.),.UNSPECIFIED.);
#136=VERTEX_POINT('',#408);
#137=VERTEX_POINT('',#409);
#138=VERTEX_POINT('',#418);
#139=VERTEX_POINT('',#420);
#140=VERTEX_POINT('',#433);
#141=VERTEX_POINT('',#435);
#142=VERTEX_POINT('',#439);
#143=VERTEX_POINT('',#441);
#144=VERTEX_POINT('',#445);
#145=VERTEX_POINT('',#446);
#146=VERTEX_POINT('',#448);
#147=VERTEX_POINT('',#453);
#148=VERTEX_POINT('',#455);
#149=VERTEX_POINT('',#459);
#150=VERTEX_POINT('',#483);
#151=VERTEX_POINT('',#500);
#152=VERTEX_POINT('',#501);
#153=VERTEX_POINT('',#503);
#154=VERTEX_POINT('',#505);
#155=VERTEX_POINT('',#509);
#156=VERTEX_POINT('',#511);
#157=VERTEX_POINT('',#534);
#158=VERTEX_POINT('',#545);
#159=VERTEX_POINT('',#558);
#160=VERTEX_POINT('',#560);
#161=EDGE_CURVE('',#136,#137,#135,.T.);
#162=EDGE_CURVE('',#136,#138,#69,.T.);
#163=EDGE_CURVE('',#139,#138,#65,.T.);
#164=EDGE_CURVE('',#137,#139,#70,.T.);
#165=EDGE_CURVE('',#140,#136,#71,.T.);
#166=EDGE_CURVE('',#140,#141,#72,.T.);
#167=EDGE_CURVE('',#138,#141,#73,.T.);
#168=EDGE_CURVE('',#141,#142,#74,.T.);
#169=EDGE_CURVE('',#142,#143,#75,.T.);
#170=EDGE_CURVE('',#143,#139,#76,.T.);
#171=EDGE_CURVE('',#144,#145,#77,.T.);
#172=EDGE_CURVE('',#146,#145,#78,.T.);
#173=EDGE_CURVE('',#137,#146,#79,.T.);
#174=EDGE_CURVE('',#144,#143,#80,.T.);
#175=EDGE_CURVE('',#147,#144,#81,.T.);
#176=EDGE_CURVE('',#147,#148,#82,.T.);
#177=EDGE_CURVE('',#145,#148,#83,.T.);
#178=EDGE_CURVE('',#140,#149,#84,.T.);
#179=EDGE_CURVE('',#148,#149,#85,.T.);
#180=EDGE_CURVE('',#142,#147,#86,.T.);
#181=EDGE_CURVE('',#150,#146,#66,.T.);
#182=EDGE_CURVE('',#136,#150,#87,.T.);
#183=EDGE_CURVE('',#149,#150,#88,.T.);
#184=EDGE_CURVE('',#151,#152,#89,.T.);
#185=EDGE_CURVE('',#151,#153,#90,.T.);
#186=EDGE_CURVE('',#154,#153,#91,.T.);
#187=EDGE_CURVE('',#152,#154,#92,.T.);
#188=EDGE_CURVE('',#152,#155,#93,.T.);
#189=EDGE_CURVE('',#156,#154,#94,.T.);
#190=EDGE_CURVE('',#155,#156,#95,.T.);
#191=EDGE_CURVE('',#157,#155,#67,.T.);
#192=EDGE_CURVE('',#158,#156,#68,.T.);
#193=EDGE_CURVE('',#157,#158,#96,.T.);
#194=EDGE_CURVE('',#159,#157,#97,.T.);
#195=EDGE_CURVE('',#160,#158,#98,.T.);
#196=EDGE_CURVE('',#159,#160,#99,.T.);
#197=EDGE_CURVE('',#159,#151,#100,.T.);
#198=EDGE_CURVE('',#153,#160,#101,.T.);
#199=ORIENTED_EDGE('',*,*,#161,.F.);
#200=ORIENTED_EDGE('',*,*,#162,.T.);
#201=ORIENTED_EDGE('',*,*,#163,.F.);
#202=ORIENTED_EDGE('',*,*,#164,.F.);
#203=ORIENTED_EDGE('',*,*,#165,.F.);
#204=ORIENTED_EDGE('',*,*,#166,.T.);
#205=ORIENTED_EDGE('',*,*,#167,.F.);
#206=ORIENTED_EDGE('',*,*,#162,.F.);
#207=ORIENTED_EDGE('',*,*,#168,.T.);
#208=ORIENTED_EDGE('',*,*,#169,.T.);
#209=ORIENTED_EDGE('',*,*,#170,.T.);
#210=ORIENTED_EDGE('',*,*,#163,.T.);
#211=ORIENTED_EDGE('',*,*,#167,.T.);
#212=ORIENTED_EDGE('',*,*,#171,.T.);
#213=ORIENTED_EDGE('',*,*,#172,.F.);
#214=ORIENTED_EDGE('',*,*,#173,.F.);
#215=ORIENTED_EDGE('',*,*,#164,.T.);
#216=ORIENTED_EDGE('',*,*,#170,.F.);
#217=ORIENTED_EDGE('',*,*,#174,.F.);
#218=ORIENTED_EDGE('',*,*,#171,.F.);
#219=ORIENTED_EDGE('',*,*,#175,.F.);
#220=ORIENTED_EDGE('',*,*,#176,.T.);
#221=ORIENTED_EDGE('',*,*,#177,.F.);
#222=ORIENTED_EDGE('',*,*,#178,.T.);
#223=ORIENTED_EDGE('',*,*,#179,.F.);
#224=ORIENTED_EDGE('',*,*,#176,.F.);
#225=ORIENTED_EDGE('',*,*,#180,.F.);
#226=ORIENTED_EDGE('',*,*,#168,.F.);
#227=ORIENTED_EDGE('',*,*,#166,.F.);
#228=ORIENTED_EDGE('',*,*,#161,.T.);
#229=ORIENTED_EDGE('',*,*,#173,.T.);
#230=ORIENTED_EDGE('',*,*,#181,.F.);
#231=ORIENTED_EDGE('',*,*,#182,.F.);
#232=ORIENTED_EDGE('',*,*,#165,.T.);
#233=ORIENTED_EDGE('',*,*,#182,.T.);
#234=ORIENTED_EDGE('',*,*,#183,.F.);
#235=ORIENTED_EDGE('',*,*,#178,.F.);
#236=ORIENTED_EDGE('',*,*,#183,.T.);
#237=ORIENTED_EDGE('',*,*,#181,.T.);
#238=ORIENTED_EDGE('',*,*,#172,.T.);
#239=ORIENTED_EDGE('',*,*,#177,.T.);
#240=ORIENTED_EDGE('',*,*,#179,.T.);
#241=ORIENTED_EDGE('',*,*,#180,.T.);
#242=ORIENTED_EDGE('',*,*,#175,.T.);
#243=ORIENTED_EDGE('',*,*,#174,.T.);
#244=ORIENTED_EDGE('',*,*,#169,.F.);
#245=ORIENTED_EDGE('',*,*,#184,.F.);
#246=ORIENTED_EDGE('',*,*,#185,.T.);
#247=ORIENTED_EDGE('',*,*,#186,.F.);
#248=ORIENTED_EDGE('',*,*,#187,.F.);
#249=ORIENTED_EDGE('',*,*,#188,.F.);
#250=ORIENTED_EDGE('',*,*,#187,.T.);
#251=ORIENTED_EDGE('',*,*,#189,.F.);
#252=ORIENTED_EDGE('',*,*,#190,.F.);
#253=ORIENTED_EDGE('',*,*,#191,.T.);
#254=ORIENTED_EDGE('',*,*,#190,.T.);
#255=ORIENTED_EDGE('',*,*,#192,.F.);
#256=ORIENTED_EDGE('',*,*,#193,.F.);
#257=ORIENTED_EDGE('',*,*,#194,.T.);
#258=ORIENTED_EDGE('',*,*,#193,.T.);
#259=ORIENTED_EDGE('',*,*,#195,.F.);
#260=ORIENTED_EDGE('',*,*,#196,.F.);
#261=ORIENTED_EDGE('',*,*,#197,.F.);
#262=ORIENTED_EDGE('',*,*,#196,.T.);
#263=ORIENTED_EDGE('',*,*,#198,.F.);
#264=ORIENTED_EDGE('',*,*,#185,.F.);
#265=ORIENTED_EDGE('',*,*,#197,.T.);
#266=ORIENTED_EDGE('',*,*,#184,.T.);
#267=ORIENTED_EDGE('',*,*,#188,.T.);
#268=ORIENTED_EDGE('',*,*,#191,.F.);
#269=ORIENTED_EDGE('',*,*,#194,.F.);
#270=ORIENTED_EDGE('',*,*,#198,.T.);
#271=ORIENTED_EDGE('',*,*,#195,.T.);
#272=ORIENTED_EDGE('',*,*,#192,.T.);
#273=ORIENTED_EDGE('',*,*,#189,.T.);
#274=ORIENTED_EDGE('',*,*,#186,.T.);
#275=(
BOUNDED_SURFACE()
B_SPLINE_SURFACE(5,1,((#388,#389),(#390,#391),(#392,#393),(#394,#395),(#396,
#397),(#398,#399),(#400,#401),(#402,#403),(#404,#405),(#406,#407)),
 .UNSPECIFIED.,.F.,.F.,.F.)
B_SPLINE_SURFACE_WITH_KNOTS((6,1,1,1,1,6),(2,2),(-0.816972304177415,-0.8,
-0.6,-0.4,-0.2,-0.183027690940214),(0.,3.5),.UNSPECIFIED.)
GEOMETRIC_REPRESENTATION_ITEM()
RATIONAL_B_SPLINE_SURFACE(((1.,1.),(1.,1.),(1.,1.),(1.,1.),(1.,1.),(1.,
1.),(1.,1.),(1.,1.),(1.,1.),(1.,1.)))
REPRESENTATION_ITEM('')
SURFACE()
);
#276=(
BOUNDED_SURFACE()
B_SPLINE_SURFACE(5,1,((#463,#464),(#465,#466),(#467,#468),(#469,#470),(#471,
#472),(#473,#474),(#475,#476),(#477,#478),(#479,#480),(#481,#482)),
 .UNSPECIFIED.,.F.,.F.,.F.)
B_SPLINE_SURFACE_WITH_KNOTS((6,1,1,1,1,6),(2,2),(-0.816972336188718,-0.8,
-0.6,-0.4,-0.2,-0.183027672461087),(0.,3.5),.UNSPECIFIED.)
GEOMETRIC_REPRESENTATION_ITEM()
RATIONAL_B_SPLINE_SURFACE(((1.,1.),(1.,1.),(1.,1.),(1.,1.),(1.,1.),(1.,
1.),(1.,1.),(1.,1.),(1.,1.),(1.,1.)))
REPRESENTATION_ITEM('')
SURFACE()
);
#277=(
BOUNDED_SURFACE()
B_SPLINE_SURFACE(5,1,((#514,#515),(#516,#517),(#518,#519),(#520,#521),(#522,
#523),(#524,#525),(#526,#527),(#528,#529),(#530,#531),(#532,#533)),
 .UNSPECIFIED.,.F.,.F.,.F.)
B_SPLINE_SURFACE_WITH_KNOTS((6,1,1,1,1,6),(2,2),(0.183027690940214,0.2,
0.4,0.6,0.8,0.816972304177415),(0.,3.5),.UNSPECIFIED.)
GEOMETRIC_REPRESENTATION_ITEM()
RATIONAL_B_SPLINE_SURFACE(((1.,1.),(1.,1.),(1.,1.),(1.,1.),(1.,1.),(1.,
1.),(1.,1.),(1.,1.),(1.,1.),(1.,1.)))
REPRESENTATION_ITEM('')
SURFACE()
);
#278=ADVANCED_FACE('',(#31),#275,.T.);
#279=ADVANCED_FACE('',(#32),#17,.T.);
#280=ADVANCED_FACE('',(#33),#18,.T.);
#281=ADVANCED_FACE('',(#34),#19,.T.);
#282=ADVANCED_FACE('',(#35),#20,.T.);
#283=ADVANCED_FACE('',(#36),#21,.T.);
#284=ADVANCED_FACE('',(#37),#276,.T.);
#285=ADVANCED_FACE('',(#38),#22,.T.);
#286=ADVANCED_FACE('',(#39),#23,.T.);
#287=ADVANCED_FACE('',(#40),#24,.F.);
#288=ADVANCED_FACE('',(#41),#25,.T.);
#289=ADVANCED_FACE('',(#42),#26,.T.);
#290=ADVANCED_FACE('',(#43),#277,.T.);
#291=ADVANCED_FACE('',(#44),#27,.T.);
#292=ADVANCED_FACE('',(#45),#28,.T.);
#293=ADVANCED_FACE('',(#46),#29,.T.);
#294=ADVANCED_FACE('',(#47),#30,.F.);
#295=CLOSED_SHELL('',(#278,#279,#280,#281,#282,#283,#284,#285,#286,#287));
#296=CLOSED_SHELL('',(#288,#289,#290,#291,#292,#293,#294));
#297=DERIVED_UNIT_ELEMENT(#299,1.);
#298=DERIVED_UNIT_ELEMENT(#573,-3.);
#299=(
MASS_UNIT()
NAMED_UNIT(*)
SI_UNIT(.KILO.,.GRAM.)
);
#300=DERIVED_UNIT((#297,#298));
#301=MEASURE_REPRESENTATION_ITEM('density measure',
POSITIVE_RATIO_MEASURE(7850.),#300);
#302=PROPERTY_DEFINITION_REPRESENTATION(#307,#304);
#303=PROPERTY_DEFINITION_REPRESENTATION(#308,#305);
#304=REPRESENTATION('material name',(#306),#570);
#305=REPRESENTATION('density',(#301),#570);
#306=DESCRIPTIVE_REPRESENTATION_ITEM('Steel','Steel');
#307=PROPERTY_DEFINITION('material property','material name',#580);
#308=PROPERTY_DEFINITION('material property','density of part',#580);
#309=AXIS2_PLACEMENT_3D('',#387,#324,#325);
#310=AXIS2_PLACEMENT_3D('',#432,#328,#329);
#311=AXIS2_PLACEMENT_3D('',#438,#333,#334);
#312=AXIS2_PLACEMENT_3D('',#444,#338,#339);
#313=AXIS2_PLACEMENT_3D('',#452,#344,#345);
#314=AXIS2_PLACEMENT_3D('',#458,#349,#350);
#315=AXIS2_PLACEMENT_3D('',#495,#355,#356);
#316=AXIS2_PLACEMENT_3D('',#497,#358,#359);
#317=AXIS2_PLACEMENT_3D('',#498,#360,#361);
#318=AXIS2_PLACEMENT_3D('',#499,#362,#363);
#319=AXIS2_PLACEMENT_3D('',#508,#368,#369);
#320=AXIS2_PLACEMENT_3D('',#557,#374,#375);
#321=AXIS2_PLACEMENT_3D('',#563,#379,#380);
#322=AXIS2_PLACEMENT_3D('',#566,#383,#384);
#323=AXIS2_PLACEMENT_3D('',#567,#385,#386);
#324=DIRECTION('axis',(0.,0.,1.));
#325=DIRECTION('refdir',(1.,0.,0.));
#326=DIRECTION('',(1.,0.,0.));
#327=DIRECTION('',(1.,0.,0.));
#328=DIRECTION('center_axis',(0.,0.,1.));
#329=DIRECTION('ref_axis',(0.,-1.,0.));
#330=DIRECTION('',(0.,1.,0.));
#331=DIRECTION('',(1.,0.,0.));
#332=DIRECTION('',(0.,-1.,0.));
#333=DIRECTION('center_axis',(1.,0.,0.));
#334=DIRECTION('ref_axis',(0.,0.,-1.));
#335=DIRECTION('',(0.,0.,-1.));
#336=DIRECTION('',(0.,1.,0.));
#337=DIRECTION('',(0.,0.,1.));
#338=DIRECTION('center_axis',(0.,1.,0.));
#339=DIRECTION('ref_axis',(-1.,0.,0.));
#340=DIRECTION('',(0.,0.,1.));
#341=DIRECTION('',(-1.,0.,0.));
#342=DIRECTION('',(0.,0.,1.));
#343=DIRECTION('',(1.,0.,0.));
#344=DIRECTION('center_axis',(-1.,0.,0.));
#345=DIRECTION('ref_axis',(0.,-1.,0.));
#346=DIRECTION('',(0.,1.,0.));
#347=DIRECTION('',(0.,0.,1.));
#348=DIRECTION('',(0.,-1.,0.));
#349=DIRECTION('center_axis',(0.,-1.,0.));
#350=DIRECTION('ref_axis',(1.,0.,0.));
#351=DIRECTION('',(0.,0.,1.));
#352=DIRECTION('',(1.,0.,0.));
#353=DIRECTION('',(-1.,0.,0.));
#354=DIRECTION('',(0.,0.,1.));
#355=DIRECTION('center_axis',(1.,0.,0.));
#356=DIRECTION('ref_axis',(0.,1.,0.));
#357=DIRECTION('',(0.,1.,0.));
#358=DIRECTION('center_axis',(0.,0.,1.));
#359=DIRECTION('ref_axis',(1.,0.,0.));
#360=DIRECTION('center_axis',(0.,0.,1.));
#361=DIRECTION('ref_axis',(1.,0.,0.));
#362=DIRECTION('center_axis',(0.,0.,-1.));
#363=DIRECTION('ref_axis',(0.,-1.,0.));
#364=DIRECTION('',(0.,1.,0.));
#365=DIRECTION('',(-1.,0.,0.));
#366=DIRECTION('',(0.,-1.,0.));
#367=DIRECTION('',(-1.,0.,0.));
#368=DIRECTION('center_axis',(0.,1.,0.));
#369=DIRECTION('ref_axis',(0.,0.,-1.));
#370=DIRECTION('',(0.,0.,1.));
#371=DIRECTION('',(0.,0.,-1.));
#372=DIRECTION('',(-1.,0.,0.));
#373=DIRECTION('',(-1.,0.,0.));
#374=DIRECTION('center_axis',(0.,0.,1.));
#375=DIRECTION('ref_axis',(0.,1.,0.));
#376=DIRECTION('',(0.,1.,0.));
#377=DIRECTION('',(0.,1.,0.));
#378=DIRECTION('',(-1.,0.,0.));
#379=DIRECTION('center_axis',(0.,-1.,0.));
#380=DIRECTION('ref_axis',(0.,0.,1.));
#381=DIRECTION('',(0.,0.,-1.));
#382=DIRECTION('',(0.,0.,1.));
#383=DIRECTION('center_axis',(1.,0.,0.));
#384=DIRECTION('ref_axis',(0.,0.,-1.));
#385=DIRECTION('center_axis',(1.,0.,0.));
#386=DIRECTION('ref_axis',(0.,0.,-1.));
#387=CARTESIAN_POINT('',(0.,0.,0.));
#388=CARTESIAN_POINT('Ctrl Pts',(0.,11.0000000192775,0.733577945998883));
#389=CARTESIAN_POINT('Ctrl Pts',(35.,11.0000000192775,0.733577945998883));
#390=CARTESIAN_POINT('Ctrl Pts',(0.,10.9281019474217,0.760135996570417));
#391=CARTESIAN_POINT('Ctrl Pts',(35.,10.9281019474217,0.760135996570417));
#392=CARTESIAN_POINT('Ctrl Pts',(0.,10.0104702026591,1.10680506825601));
#393=CARTESIAN_POINT('Ctrl Pts',(35.,10.0104702026591,1.10680506825601));
#394=CARTESIAN_POINT('Ctrl Pts',(0.,8.28446205398355,1.94734317989325));
#395=CARTESIAN_POINT('Ctrl Pts',(35.,8.28446205398355,1.94734317989325));
#396=CARTESIAN_POINT('Ctrl Pts',(0.,5.85505898008909,3.63375448658713));
#397=CARTESIAN_POINT('Ctrl Pts',(35.,5.85505898008909,3.63375448658713));
#398=CARTESIAN_POINT('Ctrl Pts',(0.,3.63375443553234,5.85505904537305));
#399=CARTESIAN_POINT('Ctrl Pts',(35.,3.63375443553234,5.85505904537305));
#400=CARTESIAN_POINT('Ctrl Pts',(0.,1.94734313401051,8.28446214429336));
#401=CARTESIAN_POINT('Ctrl Pts',(35.,1.94734313401051,8.28446214429336));
#402=CARTESIAN_POINT('Ctrl Pts',(0.,1.10680502757652,10.0104703099928));
#403=CARTESIAN_POINT('Ctrl Pts',(35.,1.10680502757652,10.0104703099928));
#404=CARTESIAN_POINT('Ctrl Pts',(0.,0.760135957631571,10.9281020716308));
#405=CARTESIAN_POINT('Ctrl Pts',(35.,0.760135957631571,10.9281020716308));
#406=CARTESIAN_POINT('Ctrl Pts',(0.,0.733577900326635,11.0000001638918));
#407=CARTESIAN_POINT('Ctrl Pts',(35.,0.733577900326635,11.0000001638918));
#408=CARTESIAN_POINT('',(10.9999994070214,0.733577900326635,11.0000001638918));
#409=CARTESIAN_POINT('',(0.733577681297138,10.9999999999791,0.733577953127445));
#410=CARTESIAN_POINT('Ctrl Pts',(10.9999994070214,0.733577900326635,11.0000001638918));
#411=CARTESIAN_POINT('Ctrl Pts',(9.41119340328767,1.32045852353216,9.41119429948006));
#412=CARTESIAN_POINT('Ctrl Pts',(7.86738223083009,2.24756246713102,7.86738317497672));
#413=CARTESIAN_POINT('Ctrl Pts',(5.09118546052461,4.49249011386816,5.09118635585479));
#414=CARTESIAN_POINT('Ctrl Pts',(3.75693208280798,5.86904831408555,3.75693288117544));
#415=CARTESIAN_POINT('Ctrl Pts',(1.91032854710652,8.47533853290176,1.91032908976922));
#416=CARTESIAN_POINT('Ctrl Pts',(1.22092185390216,9.68065934923549,1.22092225861387));
#417=CARTESIAN_POINT('Ctrl Pts',(0.733577681297138,10.9999999999791,0.733577953127446));
#418=CARTESIAN_POINT('',(35.,0.733577900326635,11.0000001638918));
#419=CARTESIAN_POINT('',(0.,0.733577900326635,11.0000001638918));
#420=CARTESIAN_POINT('',(35.,11.0000000192775,0.733577945998882));
#421=CARTESIAN_POINT('Ctrl Pts',(35.,11.0000000192775,0.733577945998883));
#422=CARTESIAN_POINT('Ctrl Pts',(35.,10.9281019474217,0.760135996570417));
#423=CARTESIAN_POINT('Ctrl Pts',(35.,10.0104702026591,1.10680506825601));
#424=CARTESIAN_POINT('Ctrl Pts',(35.,8.28446205398355,1.94734317989325));
#425=CARTESIAN_POINT('Ctrl Pts',(35.,5.85505898008909,3.63375448658713));
#426=CARTESIAN_POINT('Ctrl Pts',(35.,3.63375443553234,5.85505904537305));
#427=CARTESIAN_POINT('Ctrl Pts',(35.,1.94734313401051,8.28446214429336));
#428=CARTESIAN_POINT('Ctrl Pts',(35.,1.10680502757652,10.0104703099928));
#429=CARTESIAN_POINT('Ctrl Pts',(35.,0.760135957631571,10.9281020716308));
#430=CARTESIAN_POINT('Ctrl Pts',(35.,0.733577900326635,11.0000001638918));
#431=CARTESIAN_POINT('',(0.,11.0000000192775,0.733577945998883));
#432=CARTESIAN_POINT('Origin',(0.,0.733577900318143,11.0000001639128));
#433=CARTESIAN_POINT('',(11.0000001639128,0.,11.0000001639128));
#434=CARTESIAN_POINT('',(11.0000001639128,0.366788950159071,11.0000001639128));
#435=CARTESIAN_POINT('',(35.,0.,11.0000001639128));
#436=CARTESIAN_POINT('',(0.,0.,11.0000001639128));
#437=CARTESIAN_POINT('',(35.,0.,11.0000001639128));
#438=CARTESIAN_POINT('Origin',(35.,5.50000000963877,5.50000008195639));
#439=CARTESIAN_POINT('',(35.,0.,0.));
#440=CARTESIAN_POINT('',(35.,0.,15.0000002235174));
#441=CARTESIAN_POINT('',(35.,11.,0.));
#442=CARTESIAN_POINT('',(35.,0.,0.));
#443=CARTESIAN_POINT('',(35.,11.,0.));
#444=CARTESIAN_POINT('Origin',(0.733577681289407,11.,0.));
#445=CARTESIAN_POINT('',(0.,11.,0.));
#446=CARTESIAN_POINT('',(0.,11.,35.));
#447=CARTESIAN_POINT('',(0.,11.,0.));
#448=CARTESIAN_POINT('',(0.733577681297137,10.9999999999791,35.));
#449=CARTESIAN_POINT('',(0.,11.,35.));
#450=CARTESIAN_POINT('',(0.733577681297138,10.9999999999791,0.));
#451=CARTESIAN_POINT('',(0.,11.,0.));
#452=CARTESIAN_POINT('Origin',(0.,11.,0.));
#453=CARTESIAN_POINT('',(0.,0.,0.));
#454=CARTESIAN_POINT('',(0.,0.,0.));
#455=CARTESIAN_POINT('',(0.,0.,35.));
#456=CARTESIAN_POINT('',(0.,0.,0.));
#457=CARTESIAN_POINT('',(0.,0.,35.));
#458=CARTESIAN_POINT('Origin',(0.,0.,0.));
#459=CARTESIAN_POINT('',(11.0000001639128,0.,35.));
#460=CARTESIAN_POINT('',(11.0000001639128,0.,0.));
#461=CARTESIAN_POINT('',(15.,0.,35.));
#462=CARTESIAN_POINT('',(15.,0.,0.));
#463=CARTESIAN_POINT('Ctrl Pts',(11.0000001831904,0.7335776136217,0.));
#464=CARTESIAN_POINT('Ctrl Pts',(11.0000001831904,0.7335776136217,35.));
#465=CARTESIAN_POINT('Ctrl Pts',(10.9281019724,0.760135707172167,0.));
#466=CARTESIAN_POINT('Ctrl Pts',(10.9281019724,0.760135707172167,35.));
#467=CARTESIAN_POINT('Ctrl Pts',(10.0104700540323,1.10680475221838,0.));
#468=CARTESIAN_POINT('Ctrl Pts',(10.0104700540323,1.10680475221838,35.));
#469=CARTESIAN_POINT('Ctrl Pts',(8.28446174182478,1.94734279355496,0.));
#470=CARTESIAN_POINT('Ctrl Pts',(8.28446174182478,1.94734279355496,35.));
#471=CARTESIAN_POINT('Ctrl Pts',(5.85505859551065,3.63375399777821,0.));
#472=CARTESIAN_POINT('Ctrl Pts',(5.85505859551065,3.63375399777821,35.));
#473=CARTESIAN_POINT('Ctrl Pts',(3.63375402808626,5.85505856520266,0.));
#474=CARTESIAN_POINT('Ctrl Pts',(3.63375402808626,5.85505856520266,35.));
#475=CARTESIAN_POINT('Ctrl Pts',(1.94734284084091,8.28446167370584,0.));
#476=CARTESIAN_POINT('Ctrl Pts',(1.94734284084091,8.28446167370584,35.));
#477=CARTESIAN_POINT('Ctrl Pts',(1.10680480452741,10.0104699466179,0.));
#478=CARTESIAN_POINT('Ctrl Pts',(1.10680480452741,10.0104699466179,35.));
#479=CARTESIAN_POINT('Ctrl Pts',(0.760135762453225,10.9281018260711,0.));
#480=CARTESIAN_POINT('Ctrl Pts',(0.760135762453225,10.9281018260711,35.));
#481=CARTESIAN_POINT('Ctrl Pts',(0.733577681297138,10.9999999999791,0.));
#482=CARTESIAN_POINT('Ctrl Pts',(0.733577681297138,10.9999999999791,35.));
#483=CARTESIAN_POINT('',(11.0000001831904,0.7335776136217,35.));
#484=CARTESIAN_POINT('Ctrl Pts',(11.0000001831904,0.7335776136217,35.));
#485=CARTESIAN_POINT('Ctrl Pts',(10.9281019724,0.760135707172167,35.));
#486=CARTESIAN_POINT('Ctrl Pts',(10.0104700540323,1.10680475221838,35.));
#487=CARTESIAN_POINT('Ctrl Pts',(8.28446174182478,1.94734279355496,35.));
#488=CARTESIAN_POINT('Ctrl Pts',(5.85505859551065,3.63375399777821,35.));
#489=CARTESIAN_POINT('Ctrl Pts',(3.63375402808626,5.85505856520266,35.));
#490=CARTESIAN_POINT('Ctrl Pts',(1.94734284084091,8.28446167370584,35.));
#491=CARTESIAN_POINT('Ctrl Pts',(1.10680480452741,10.0104699466179,35.));
#492=CARTESIAN_POINT('Ctrl Pts',(0.760135762453225,10.9281018260711,35.));
#493=CARTESIAN_POINT('Ctrl Pts',(0.733577681297138,10.9999999999791,35.));
#494=CARTESIAN_POINT('',(11.0000001831904,0.7335776136217,0.));
#495=CARTESIAN_POINT('Origin',(11.0000001639128,0.,0.));
#496=CARTESIAN_POINT('',(11.0000001639128,0.,35.));
#497=CARTESIAN_POINT('Origin',(5.50000009159521,5.5,35.));
#498=CARTESIAN_POINT('Origin',(5.50000009159521,5.5,0.));
#499=CARTESIAN_POINT('Origin',(-10.,11.,0.));
#500=CARTESIAN_POINT('',(-10.,0.,0.));
#501=CARTESIAN_POINT('',(-10.,11.,0.));
#502=CARTESIAN_POINT('',(-10.,0.,0.));
#503=CARTESIAN_POINT('',(-45.,0.,0.));
#504=CARTESIAN_POINT('',(-10.,0.,0.));
#505=CARTESIAN_POINT('',(-45.,11.,0.));
#506=CARTESIAN_POINT('',(-45.,0.,0.));
#507=CARTESIAN_POINT('',(-10.,11.,0.));
#508=CARTESIAN_POINT('Origin',(-10.,11.,0.733577945998883));
#509=CARTESIAN_POINT('',(-10.,11.0000000192775,0.733577945998883));
#510=CARTESIAN_POINT('',(-10.,11.,0.));
#511=CARTESIAN_POINT('',(-45.,11.0000000192775,0.733577945998882));
#512=CARTESIAN_POINT('',(-45.,11.,0.));
#513=CARTESIAN_POINT('',(-10.,11.0000000192775,0.733577945998883));
#514=CARTESIAN_POINT('Ctrl Pts',(-10.,0.733577900326635,11.0000001638918));
#515=CARTESIAN_POINT('Ctrl Pts',(-45.,0.733577900326635,11.0000001638918));
#516=CARTESIAN_POINT('Ctrl Pts',(-10.,0.760135957631571,10.9281020716308));
#517=CARTESIAN_POINT('Ctrl Pts',(-45.,0.760135957631571,10.9281020716308));
#518=CARTESIAN_POINT('Ctrl Pts',(-10.,1.10680502757652,10.0104703099928));
#519=CARTESIAN_POINT('Ctrl Pts',(-45.,1.10680502757652,10.0104703099928));
#520=CARTESIAN_POINT('Ctrl Pts',(-10.,1.94734313401051,8.28446214429336));
#521=CARTESIAN_POINT('Ctrl Pts',(-45.,1.94734313401051,8.28446214429336));
#522=CARTESIAN_POINT('Ctrl Pts',(-10.,3.63375443553234,5.85505904537305));
#523=CARTESIAN_POINT('Ctrl Pts',(-45.,3.63375443553234,5.85505904537305));
#524=CARTESIAN_POINT('Ctrl Pts',(-10.,5.85505898008909,3.63375448658713));
#525=CARTESIAN_POINT('Ctrl Pts',(-45.,5.85505898008909,3.63375448658713));
#526=CARTESIAN_POINT('Ctrl Pts',(-10.,8.28446205398355,1.94734317989325));
#527=CARTESIAN_POINT('Ctrl Pts',(-45.,8.28446205398355,1.94734317989325));
#528=CARTESIAN_POINT('Ctrl Pts',(-10.,10.0104702026591,1.10680506825601));
#529=CARTESIAN_POINT('Ctrl Pts',(-45.,10.0104702026591,1.10680506825601));
#530=CARTESIAN_POINT('Ctrl Pts',(-10.,10.9281019474217,0.760135996570417));
#531=CARTESIAN_POINT('Ctrl Pts',(-45.,10.9281019474217,0.760135996570417));
#532=CARTESIAN_POINT('Ctrl Pts',(-10.,11.0000000192775,0.733577945998883));
#533=CARTESIAN_POINT('Ctrl Pts',(-45.,11.0000000192775,0.733577945998883));
#534=CARTESIAN_POINT('',(-10.,0.733577900326635,11.0000001638918));
#535=CARTESIAN_POINT('Ctrl Pts',(-10.,0.733577900326635,11.0000001638918));
#536=CARTESIAN_POINT('Ctrl Pts',(-10.,0.760135957631571,10.9281020716308));
#537=CARTESIAN_POINT('Ctrl Pts',(-10.,1.10680502757652,10.0104703099928));
#538=CARTESIAN_POINT('Ctrl Pts',(-10.,1.94734313401051,8.28446214429336));
#539=CARTESIAN_POINT('Ctrl Pts',(-10.,3.63375443553234,5.85505904537305));
#540=CARTESIAN_POINT('Ctrl Pts',(-10.,5.85505898008909,3.63375448658713));
#541=CARTESIAN_POINT('Ctrl Pts',(-10.,8.28446205398355,1.94734317989325));
#542=CARTESIAN_POINT('Ctrl Pts',(-10.,10.0104702026591,1.10680506825601));
#543=CARTESIAN_POINT('Ctrl Pts',(-10.,10.9281019474217,0.760135996570417));
#544=CARTESIAN_POINT('Ctrl Pts',(-10.,11.0000000192775,0.733577945998883));
#545=CARTESIAN_POINT('',(-45.,0.733577900326635,11.0000001638918));
#546=CARTESIAN_POINT('Ctrl Pts',(-45.,0.733577900326635,11.0000001638918));
#547=CARTESIAN_POINT('Ctrl Pts',(-45.,0.760135957631571,10.9281020716308));
#548=CARTESIAN_POINT('Ctrl Pts',(-45.,1.10680502757652,10.0104703099928));
#549=CARTESIAN_POINT('Ctrl Pts',(-45.,1.94734313401051,8.28446214429336));
#550=CARTESIAN_POINT('Ctrl Pts',(-45.,3.63375443553234,5.85505904537305));
#551=CARTESIAN_POINT('Ctrl Pts',(-45.,5.85505898008909,3.63375448658713));
#552=CARTESIAN_POINT('Ctrl Pts',(-45.,8.28446205398355,1.94734317989325));
#553=CARTESIAN_POINT('Ctrl Pts',(-45.,10.0104702026591,1.10680506825601));
#554=CARTESIAN_POINT('Ctrl Pts',(-45.,10.9281019474217,0.760135996570417));
#555=CARTESIAN_POINT('Ctrl Pts',(-45.,11.0000000192775,0.733577945998883));
#556=CARTESIAN_POINT('',(-10.,0.733577900326635,11.0000001638918));
#557=CARTESIAN_POINT('Origin',(-10.,0.,11.0000001639128));
#558=CARTESIAN_POINT('',(-10.,0.,11.0000001639128));
#559=CARTESIAN_POINT('',(-10.,0.,11.0000001639128));
#560=CARTESIAN_POINT('',(-45.,0.,11.0000001639128));
#561=CARTESIAN_POINT('',(-45.,0.,11.0000001639128));
#562=CARTESIAN_POINT('',(-10.,0.,11.0000001639128));
#563=CARTESIAN_POINT('Origin',(-10.,0.,0.));
#564=CARTESIAN_POINT('',(-10.,0.,15.0000002235174));
#565=CARTESIAN_POINT('',(-45.,0.,15.0000002235174));
#566=CARTESIAN_POINT('Origin',(-10.,5.50000000963877,5.50000008195639));
#567=CARTESIAN_POINT('Origin',(-45.,5.50000000963877,5.50000008195639));
#568=UNCERTAINTY_MEASURE_WITH_UNIT(LENGTH_MEASURE(0.01),#572,
'DISTANCE_ACCURACY_VALUE',
'Maximum model space distance between geometric entities at asserted c
onnectivities');
#569=UNCERTAINTY_MEASURE_WITH_UNIT(LENGTH_MEASURE(0.01),#572,
'DISTANCE_ACCURACY_VALUE',
'Maximum model space distance between geometric entities at asserted c
onnectivities');
#570=(
GEOMETRIC_REPRESENTATION_CONTEXT(3)
GLOBAL_UNCERTAINTY_ASSIGNED_CONTEXT((#568))
GLOBAL_UNIT_ASSIGNED_CONTEXT((#572,#574,#575))
REPRESENTATION_CONTEXT('','3D')
);
#571=(
GEOMETRIC_REPRESENTATION_CONTEXT(3)
GLOBAL_UNCERTAINTY_ASSIGNED_CONTEXT((#569))
GLOBAL_UNIT_ASSIGNED_CONTEXT((#572,#574,#575))
REPRESENTATION_CONTEXT('','3D')
);
#572=(
LENGTH_UNIT()
NAMED_UNIT(*)
SI_UNIT(.MILLI.,.METRE.)
);
#573=(
LENGTH_UNIT()
NAMED_UNIT(*)
SI_UNIT($,.METRE.)
);
#574=(
NAMED_UNIT(*)
PLANE_ANGLE_UNIT()
SI_UNIT($,.RADIAN.)
);
#575=(
NAMED_UNIT(*)
SI_UNIT($,.STERADIAN.)
SOLID_ANGLE_UNIT()
);
#576=SHAPE_DEFINITION_REPRESENTATION(#577,#578);
#577=PRODUCT_DEFINITION_SHAPE('',$,#580);
#578=SHAPE_REPRESENTATION('',(#309),#570);
#579=PRODUCT_DEFINITION_CONTEXT('part definition',#584,'design');
#580=PRODUCT_DEFINITION('base_support','base_support v2',#581,#579);
#581=PRODUCT_DEFINITION_FORMATION('',$,#586);
#582=PRODUCT_RELATED_PRODUCT_CATEGORY('base_support v2',
'base_support v2',(#586));
#583=APPLICATION_PROTOCOL_DEFINITION('international standard',
'automotive_design',2009,#584);
#584=APPLICATION_CONTEXT(
'Core Data for Automotive Mechanical Design Process');
#585=PRODUCT_CONTEXT('part definition',#584,'mechanical');
#586=PRODUCT('base_support','base_support v2',$,(#585));
#587=PRESENTATION_STYLE_ASSIGNMENT((#588));
#588=SURFACE_STYLE_USAGE(.BOTH.,#589);
#589=SURFACE_SIDE_STYLE('',(#590));
#590=SURFACE_STYLE_FILL_AREA(#591);
#591=FILL_AREA_STYLE('Steel - Satin',(#592));
#592=FILL_AREA_STYLE_COLOUR('Steel - Satin',#593);
#593=COLOUR_RGB('Steel - Satin',0.627450980392157,0.627450980392157,0.627450980392157);
ENDSEC;
END-ISO-10303-21;
