ISO-10303-21;
HEADER;
/* Generated by software containing ST-Developer
 * from STEP Tools, Inc. (www.steptools.com) 
 */

FILE_DESCRIPTION(
/* description */ (''),
/* implementation_level */ '2;1');

FILE_NAME(
/* name */ 'new_hinge.step',
/* time_stamp */ '2026-09-22T21:10:43+05:30',
/* author */ (''),
/* organization */ (''),
/* preprocessor_version */ 'ST-DEVELOPER v20.2',
/* originating_system */ 'Autodesk Translation Framework v15.15.0.0',
/* authorisation */ '');

FILE_SCHEMA (('AUTOMOTIVE_DESIGN { 1 0 10303 214 3 1 1 }'));
ENDSEC;

DATA;
#10=MECHANICAL_DESIGN_GEOMETRIC_PRESENTATION_REPRESENTATION('',(#13),#534);
#11=SHAPE_REPRESENTATION_RELATIONSHIP('SRR','None',#541,#12);
#12=ADVANCED_BREP_SHAPE_REPRESENTATION('',(#14),#533);
#13=STYLED_ITEM('',(#550),#14);
#14=MANIFOLD_SOLID_BREP('Body1',#314);
#15=ELLIPSE('',#341,2.82842712474619,2.);
#16=ELLIPSE('',#342,2.82842712474619,2.);
#17=ELLIPSE('',#344,2.82842712474619,2.);
#18=ELLIPSE('',#345,2.82842712474619,2.);
#19=FACE_BOUND('',#55,.T.);
#20=FACE_BOUND('',#63,.T.);
#21=FACE_BOUND('',#66,.T.);
#22=PLANE('',#334);
#23=PLANE('',#335);
#24=PLANE('',#339);
#25=PLANE('',#348);
#26=PLANE('',#349);
#27=PLANE('',#350);
#28=PLANE('',#351);
#29=PLANE('',#352);
#30=PLANE('',#353);
#31=PLANE('',#354);
#32=PLANE('',#355);
#33=FACE_OUTER_BOUND('',#51,.T.);
#34=FACE_OUTER_BOUND('',#52,.T.);
#35=FACE_OUTER_BOUND('',#53,.T.);
#36=FACE_OUTER_BOUND('',#54,.T.);
#37=FACE_OUTER_BOUND('',#56,.T.);
#38=FACE_OUTER_BOUND('',#57,.T.);
#39=FACE_OUTER_BOUND('',#58,.T.);
#40=FACE_OUTER_BOUND('',#59,.T.);
#41=FACE_OUTER_BOUND('',#60,.T.);
#42=FACE_OUTER_BOUND('',#61,.T.);
#43=FACE_OUTER_BOUND('',#62,.T.);
#44=FACE_OUTER_BOUND('',#64,.T.);
#45=FACE_OUTER_BOUND('',#65,.T.);
#46=FACE_OUTER_BOUND('',#67,.T.);
#47=FACE_OUTER_BOUND('',#68,.T.);
#48=FACE_OUTER_BOUND('',#69,.T.);
#49=FACE_OUTER_BOUND('',#70,.T.);
#50=FACE_OUTER_BOUND('',#71,.T.);
#51=EDGE_LOOP('',(#207,#208,#209,#210));
#52=EDGE_LOOP('',(#211,#212,#213,#214));
#53=EDGE_LOOP('',(#215,#216,#217,#218));
#54=EDGE_LOOP('',(#219,#220,#221,#222,#223,#224));
#55=EDGE_LOOP('',(#225));
#56=EDGE_LOOP('',(#226,#227,#228,#229));
#57=EDGE_LOOP('',(#230,#231,#232,#233));
#58=EDGE_LOOP('',(#234,#235,#236,#237));
#59=EDGE_LOOP('',(#238,#239,#240,#241));
#60=EDGE_LOOP('',(#242,#243,#244,#245));
#61=EDGE_LOOP('',(#246,#247,#248,#249));
#62=EDGE_LOOP('',(#250,#251,#252,#253));
#63=EDGE_LOOP('',(#254,#255,#256,#257));
#64=EDGE_LOOP('',(#258,#259,#260,#261));
#65=EDGE_LOOP('',(#262,#263,#264,#265,#266,#267));
#66=EDGE_LOOP('',(#268));
#67=EDGE_LOOP('',(#269,#270,#271,#272));
#68=EDGE_LOOP('',(#273,#274,#275,#276));
#69=EDGE_LOOP('',(#277,#278,#279,#280));
#70=EDGE_LOOP('',(#281,#282,#283,#284));
#71=EDGE_LOOP('',(#285,#286,#287,#288));
#72=LINE('',#450,#103);
#73=LINE('',#457,#104);
#74=LINE('',#460,#105);
#75=LINE('',#463,#106);
#76=LINE('',#465,#107);
#77=LINE('',#466,#108);
#78=LINE('',#469,#109);
#79=LINE('',#471,#110);
#80=LINE('',#473,#111);
#81=LINE('',#478,#112);
#82=LINE('',#481,#113);
#83=LINE('',#482,#114);
#84=LINE('',#486,#115);
#85=LINE('',#489,#116);
#86=LINE('',#494,#117);
#87=LINE('',#498,#118);
#88=LINE('',#499,#119);
#89=LINE('',#501,#120);
#90=LINE('',#505,#121);
#91=LINE('',#507,#122);
#92=LINE('',#509,#123);
#93=LINE('',#510,#124);
#94=LINE('',#512,#125);
#95=LINE('',#517,#126);
#96=LINE('',#518,#127);
#97=LINE('',#519,#128);
#98=LINE('',#522,#129);
#99=LINE('',#523,#130);
#100=LINE('',#526,#131);
#101=LINE('',#527,#132);
#102=LINE('',#529,#133);
#103=VECTOR('',#362,1.);
#104=VECTOR('',#369,10.);
#105=VECTOR('',#372,10.);
#106=VECTOR('',#375,10.);
#107=VECTOR('',#376,10.);
#108=VECTOR('',#377,10.);
#109=VECTOR('',#380,10.);
#110=VECTOR('',#381,10.);
#111=VECTOR('',#382,10.);
#112=VECTOR('',#389,10.);
#113=VECTOR('',#392,10.);
#114=VECTOR('',#393,10.);
#115=VECTOR('',#396,10.);
#116=VECTOR('',#399,10.);
#117=VECTOR('',#404,10.);
#118=VECTOR('',#411,10.);
#119=VECTOR('',#412,10.);
#120=VECTOR('',#415,10.);
#121=VECTOR('',#418,10.);
#122=VECTOR('',#419,10.);
#123=VECTOR('',#420,10.);
#124=VECTOR('',#421,10.);
#125=VECTOR('',#424,10.);
#126=VECTOR('',#429,10.);
#127=VECTOR('',#430,10.);
#128=VECTOR('',#431,10.);
#129=VECTOR('',#434,10.);
#130=VECTOR('',#435,10.);
#131=VECTOR('',#438,10.);
#132=VECTOR('',#439,10.);
#133=VECTOR('',#442,10.);
#134=CIRCLE('',#329,1.);
#135=CIRCLE('',#330,1.);
#136=CIRCLE('',#332,5.);
#137=CIRCLE('',#333,5.);
#138=CIRCLE('',#336,5.);
#139=CIRCLE('',#338,5.);
#140=VERTEX_POINT('',#447);
#141=VERTEX_POINT('',#449);
#142=VERTEX_POINT('',#453);
#143=VERTEX_POINT('',#454);
#144=VERTEX_POINT('',#456);
#145=VERTEX_POINT('',#458);
#146=VERTEX_POINT('',#462);
#147=VERTEX_POINT('',#464);
#148=VERTEX_POINT('',#468);
#149=VERTEX_POINT('',#470);
#150=VERTEX_POINT('',#472);
#151=VERTEX_POINT('',#476);
#152=VERTEX_POINT('',#480);
#153=VERTEX_POINT('',#484);
#154=VERTEX_POINT('',#485);
#155=VERTEX_POINT('',#488);
#156=VERTEX_POINT('',#492);
#157=VERTEX_POINT('',#493);
#158=VERTEX_POINT('',#503);
#159=VERTEX_POINT('',#504);
#160=VERTEX_POINT('',#506);
#161=VERTEX_POINT('',#508);
#162=VERTEX_POINT('',#515);
#163=VERTEX_POINT('',#516);
#164=VERTEX_POINT('',#521);
#165=VERTEX_POINT('',#525);
#166=EDGE_CURVE('',#140,#140,#134,.T.);
#167=EDGE_CURVE('',#140,#141,#72,.T.);
#168=EDGE_CURVE('',#141,#141,#135,.T.);
#169=EDGE_CURVE('',#142,#143,#136,.T.);
#170=EDGE_CURVE('',#143,#144,#73,.T.);
#171=EDGE_CURVE('',#144,#145,#137,.T.);
#172=EDGE_CURVE('',#145,#142,#74,.T.);
#173=EDGE_CURVE('',#143,#146,#75,.T.);
#174=EDGE_CURVE('',#147,#146,#76,.T.);
#175=EDGE_CURVE('',#147,#144,#77,.T.);
#176=EDGE_CURVE('',#148,#142,#78,.T.);
#177=EDGE_CURVE('',#149,#148,#79,.T.);
#178=EDGE_CURVE('',#149,#150,#80,.T.);
#179=EDGE_CURVE('',#146,#150,#138,.T.);
#180=EDGE_CURVE('',#151,#147,#139,.T.);
#181=EDGE_CURVE('',#150,#151,#81,.T.);
#182=EDGE_CURVE('',#152,#149,#82,.T.);
#183=EDGE_CURVE('',#152,#151,#83,.T.);
#184=EDGE_CURVE('',#153,#154,#84,.T.);
#185=EDGE_CURVE('',#154,#148,#15,.T.);
#186=EDGE_CURVE('',#148,#155,#85,.T.);
#187=EDGE_CURVE('',#153,#155,#16,.T.);
#188=EDGE_CURVE('',#156,#157,#86,.T.);
#189=EDGE_CURVE('',#157,#152,#17,.T.);
#190=EDGE_CURVE('',#149,#156,#18,.T.);
#191=EDGE_CURVE('',#155,#152,#87,.T.);
#192=EDGE_CURVE('',#157,#153,#88,.T.);
#193=EDGE_CURVE('',#154,#156,#89,.T.);
#194=EDGE_CURVE('',#158,#159,#90,.T.);
#195=EDGE_CURVE('',#159,#160,#91,.T.);
#196=EDGE_CURVE('',#160,#161,#92,.T.);
#197=EDGE_CURVE('',#161,#158,#93,.T.);
#198=EDGE_CURVE('',#155,#145,#94,.T.);
#199=EDGE_CURVE('',#162,#163,#95,.T.);
#200=EDGE_CURVE('',#162,#158,#96,.T.);
#201=EDGE_CURVE('',#163,#161,#97,.T.);
#202=EDGE_CURVE('',#163,#164,#98,.T.);
#203=EDGE_CURVE('',#164,#160,#99,.T.);
#204=EDGE_CURVE('',#164,#165,#100,.T.);
#205=EDGE_CURVE('',#165,#159,#101,.T.);
#206=EDGE_CURVE('',#165,#162,#102,.T.);
#207=ORIENTED_EDGE('',*,*,#166,.F.);
#208=ORIENTED_EDGE('',*,*,#167,.T.);
#209=ORIENTED_EDGE('',*,*,#168,.F.);
#210=ORIENTED_EDGE('',*,*,#167,.F.);
#211=ORIENTED_EDGE('',*,*,#169,.T.);
#212=ORIENTED_EDGE('',*,*,#170,.T.);
#213=ORIENTED_EDGE('',*,*,#171,.T.);
#214=ORIENTED_EDGE('',*,*,#172,.T.);
#215=ORIENTED_EDGE('',*,*,#170,.F.);
#216=ORIENTED_EDGE('',*,*,#173,.T.);
#217=ORIENTED_EDGE('',*,*,#174,.F.);
#218=ORIENTED_EDGE('',*,*,#175,.T.);
#219=ORIENTED_EDGE('',*,*,#169,.F.);
#220=ORIENTED_EDGE('',*,*,#176,.F.);
#221=ORIENTED_EDGE('',*,*,#177,.F.);
#222=ORIENTED_EDGE('',*,*,#178,.T.);
#223=ORIENTED_EDGE('',*,*,#179,.F.);
#224=ORIENTED_EDGE('',*,*,#173,.F.);
#225=ORIENTED_EDGE('',*,*,#168,.T.);
#226=ORIENTED_EDGE('',*,*,#180,.T.);
#227=ORIENTED_EDGE('',*,*,#174,.T.);
#228=ORIENTED_EDGE('',*,*,#179,.T.);
#229=ORIENTED_EDGE('',*,*,#181,.T.);
#230=ORIENTED_EDGE('',*,*,#181,.F.);
#231=ORIENTED_EDGE('',*,*,#178,.F.);
#232=ORIENTED_EDGE('',*,*,#182,.F.);
#233=ORIENTED_EDGE('',*,*,#183,.T.);
#234=ORIENTED_EDGE('',*,*,#184,.T.);
#235=ORIENTED_EDGE('',*,*,#185,.T.);
#236=ORIENTED_EDGE('',*,*,#186,.T.);
#237=ORIENTED_EDGE('',*,*,#187,.F.);
#238=ORIENTED_EDGE('',*,*,#188,.T.);
#239=ORIENTED_EDGE('',*,*,#189,.T.);
#240=ORIENTED_EDGE('',*,*,#182,.T.);
#241=ORIENTED_EDGE('',*,*,#190,.T.);
#242=ORIENTED_EDGE('',*,*,#191,.T.);
#243=ORIENTED_EDGE('',*,*,#189,.F.);
#244=ORIENTED_EDGE('',*,*,#192,.T.);
#245=ORIENTED_EDGE('',*,*,#187,.T.);
#246=ORIENTED_EDGE('',*,*,#193,.T.);
#247=ORIENTED_EDGE('',*,*,#190,.F.);
#248=ORIENTED_EDGE('',*,*,#177,.T.);
#249=ORIENTED_EDGE('',*,*,#185,.F.);
#250=ORIENTED_EDGE('',*,*,#194,.T.);
#251=ORIENTED_EDGE('',*,*,#195,.T.);
#252=ORIENTED_EDGE('',*,*,#196,.T.);
#253=ORIENTED_EDGE('',*,*,#197,.T.);
#254=ORIENTED_EDGE('',*,*,#188,.F.);
#255=ORIENTED_EDGE('',*,*,#193,.F.);
#256=ORIENTED_EDGE('',*,*,#184,.F.);
#257=ORIENTED_EDGE('',*,*,#192,.F.);
#258=ORIENTED_EDGE('',*,*,#172,.F.);
#259=ORIENTED_EDGE('',*,*,#198,.F.);
#260=ORIENTED_EDGE('',*,*,#186,.F.);
#261=ORIENTED_EDGE('',*,*,#176,.T.);
#262=ORIENTED_EDGE('',*,*,#171,.F.);
#263=ORIENTED_EDGE('',*,*,#175,.F.);
#264=ORIENTED_EDGE('',*,*,#180,.F.);
#265=ORIENTED_EDGE('',*,*,#183,.F.);
#266=ORIENTED_EDGE('',*,*,#191,.F.);
#267=ORIENTED_EDGE('',*,*,#198,.T.);
#268=ORIENTED_EDGE('',*,*,#166,.T.);
#269=ORIENTED_EDGE('',*,*,#199,.F.);
#270=ORIENTED_EDGE('',*,*,#200,.T.);
#271=ORIENTED_EDGE('',*,*,#197,.F.);
#272=ORIENTED_EDGE('',*,*,#201,.F.);
#273=ORIENTED_EDGE('',*,*,#202,.F.);
#274=ORIENTED_EDGE('',*,*,#201,.T.);
#275=ORIENTED_EDGE('',*,*,#196,.F.);
#276=ORIENTED_EDGE('',*,*,#203,.F.);
#277=ORIENTED_EDGE('',*,*,#204,.F.);
#278=ORIENTED_EDGE('',*,*,#203,.T.);
#279=ORIENTED_EDGE('',*,*,#195,.F.);
#280=ORIENTED_EDGE('',*,*,#205,.F.);
#281=ORIENTED_EDGE('',*,*,#206,.F.);
#282=ORIENTED_EDGE('',*,*,#205,.T.);
#283=ORIENTED_EDGE('',*,*,#194,.F.);
#284=ORIENTED_EDGE('',*,*,#200,.F.);
#285=ORIENTED_EDGE('',*,*,#206,.T.);
#286=ORIENTED_EDGE('',*,*,#199,.T.);
#287=ORIENTED_EDGE('',*,*,#202,.T.);
#288=ORIENTED_EDGE('',*,*,#204,.T.);
#289=CYLINDRICAL_SURFACE('',#328,1.);
#290=CYLINDRICAL_SURFACE('',#331,5.);
#291=CYLINDRICAL_SURFACE('',#337,5.);
#292=CYLINDRICAL_SURFACE('',#340,2.);
#293=CYLINDRICAL_SURFACE('',#343,2.);
#294=CYLINDRICAL_SURFACE('',#346,2.);
#295=CYLINDRICAL_SURFACE('',#347,2.);
#296=ADVANCED_FACE('',(#33),#289,.F.);
#297=ADVANCED_FACE('',(#34),#290,.T.);
#298=ADVANCED_FACE('',(#35),#22,.T.);
#299=ADVANCED_FACE('',(#36,#19),#23,.T.);
#300=ADVANCED_FACE('',(#37),#291,.T.);
#301=ADVANCED_FACE('',(#38),#24,.T.);
#302=ADVANCED_FACE('',(#39),#292,.F.);
#303=ADVANCED_FACE('',(#40),#293,.F.);
#304=ADVANCED_FACE('',(#41),#294,.F.);
#305=ADVANCED_FACE('',(#42),#295,.F.);
#306=ADVANCED_FACE('',(#43,#20),#25,.T.);
#307=ADVANCED_FACE('',(#44),#26,.T.);
#308=ADVANCED_FACE('',(#45,#21),#27,.T.);
#309=ADVANCED_FACE('',(#46),#28,.T.);
#310=ADVANCED_FACE('',(#47),#29,.T.);
#311=ADVANCED_FACE('',(#48),#30,.T.);
#312=ADVANCED_FACE('',(#49),#31,.T.);
#313=ADVANCED_FACE('',(#50),#32,.F.);
#314=CLOSED_SHELL('',(#296,#297,#298,#299,#300,#301,#302,#303,#304,#305,
#306,#307,#308,#309,#310,#311,#312,#313));
#315=DERIVED_UNIT_ELEMENT(#317,1.);
#316=DERIVED_UNIT_ELEMENT(#536,-3.);
#317=(
MASS_UNIT()
NAMED_UNIT(*)
SI_UNIT(.KILO.,.GRAM.)
);
#318=DERIVED_UNIT((#315,#316));
#319=MEASURE_REPRESENTATION_ITEM('density measure',
POSITIVE_RATIO_MEASURE(7850.),#318);
#320=PROPERTY_DEFINITION_REPRESENTATION(#325,#322);
#321=PROPERTY_DEFINITION_REPRESENTATION(#326,#323);
#322=REPRESENTATION('material name',(#324),#533);
#323=REPRESENTATION('density',(#319),#533);
#324=DESCRIPTIVE_REPRESENTATION_ITEM('Steel','Steel');
#325=PROPERTY_DEFINITION('material property','material name',#543);
#326=PROPERTY_DEFINITION('material property','density of part',#543);
#327=AXIS2_PLACEMENT_3D('',#445,#356,#357);
#328=AXIS2_PLACEMENT_3D('',#446,#358,#359);
#329=AXIS2_PLACEMENT_3D('',#448,#360,#361);
#330=AXIS2_PLACEMENT_3D('',#451,#363,#364);
#331=AXIS2_PLACEMENT_3D('',#452,#365,#366);
#332=AXIS2_PLACEMENT_3D('',#455,#367,#368);
#333=AXIS2_PLACEMENT_3D('',#459,#370,#371);
#334=AXIS2_PLACEMENT_3D('',#461,#373,#374);
#335=AXIS2_PLACEMENT_3D('',#467,#378,#379);
#336=AXIS2_PLACEMENT_3D('',#474,#383,#384);
#337=AXIS2_PLACEMENT_3D('',#475,#385,#386);
#338=AXIS2_PLACEMENT_3D('',#477,#387,#388);
#339=AXIS2_PLACEMENT_3D('',#479,#390,#391);
#340=AXIS2_PLACEMENT_3D('',#483,#394,#395);
#341=AXIS2_PLACEMENT_3D('',#487,#397,#398);
#342=AXIS2_PLACEMENT_3D('',#490,#400,#401);
#343=AXIS2_PLACEMENT_3D('',#491,#402,#403);
#344=AXIS2_PLACEMENT_3D('',#495,#405,#406);
#345=AXIS2_PLACEMENT_3D('',#496,#407,#408);
#346=AXIS2_PLACEMENT_3D('',#497,#409,#410);
#347=AXIS2_PLACEMENT_3D('',#500,#413,#414);
#348=AXIS2_PLACEMENT_3D('',#502,#416,#417);
#349=AXIS2_PLACEMENT_3D('',#511,#422,#423);
#350=AXIS2_PLACEMENT_3D('',#513,#425,#426);
#351=AXIS2_PLACEMENT_3D('',#514,#427,#428);
#352=AXIS2_PLACEMENT_3D('',#520,#432,#433);
#353=AXIS2_PLACEMENT_3D('',#524,#436,#437);
#354=AXIS2_PLACEMENT_3D('',#528,#440,#441);
#355=AXIS2_PLACEMENT_3D('',#530,#443,#444);
#356=DIRECTION('axis',(0.,0.,1.));
#357=DIRECTION('refdir',(1.,0.,0.));
#358=DIRECTION('center_axis',(0.,0.,1.));
#359=DIRECTION('ref_axis',(-1.,0.,0.));
#360=DIRECTION('center_axis',(0.,0.,1.));
#361=DIRECTION('ref_axis',(-1.,0.,0.));
#362=DIRECTION('',(0.,0.,1.));
#363=DIRECTION('center_axis',(0.,0.,-1.));
#364=DIRECTION('ref_axis',(-1.,0.,0.));
#365=DIRECTION('center_axis',(0.,0.,1.));
#366=DIRECTION('ref_axis',(-0.707106781186547,0.707106781186547,0.));
#367=DIRECTION('center_axis',(0.,0.,-1.));
#368=DIRECTION('ref_axis',(-0.707106781186547,0.707106781186547,0.));
#369=DIRECTION('',(0.,0.,-1.));
#370=DIRECTION('center_axis',(0.,0.,1.));
#371=DIRECTION('ref_axis',(-0.707106781186547,0.707106781186547,0.));
#372=DIRECTION('',(0.,0.,1.));
#373=DIRECTION('center_axis',(0.,1.,0.));
#374=DIRECTION('ref_axis',(0.,0.,1.));
#375=DIRECTION('',(1.,0.,0.));
#376=DIRECTION('',(0.,0.,1.));
#377=DIRECTION('',(-1.,0.,0.));
#378=DIRECTION('center_axis',(0.,0.,1.));
#379=DIRECTION('ref_axis',(1.,0.,0.));
#380=DIRECTION('',(0.,1.,0.));
#381=DIRECTION('',(-1.,0.,0.));
#382=DIRECTION('',(0.,1.,0.));
#383=DIRECTION('center_axis',(0.,0.,-1.));
#384=DIRECTION('ref_axis',(0.707106781186547,0.707106781186547,0.));
#385=DIRECTION('center_axis',(0.,0.,-1.));
#386=DIRECTION('ref_axis',(0.707106781186547,0.707106781186547,0.));
#387=DIRECTION('center_axis',(0.,0.,1.));
#388=DIRECTION('ref_axis',(0.707106781186547,0.707106781186547,0.));
#389=DIRECTION('',(0.,0.,-1.));
#390=DIRECTION('center_axis',(1.,0.,0.));
#391=DIRECTION('ref_axis',(0.,0.,-1.));
#392=DIRECTION('',(0.,0.,1.));
#393=DIRECTION('',(0.,1.,0.));
#394=DIRECTION('center_axis',(0.,0.,-1.));
#395=DIRECTION('ref_axis',(0.707106781186547,-0.707106781186548,0.));
#396=DIRECTION('',(0.,0.,1.));
#397=DIRECTION('center_axis',(0.707106781186548,0.,0.707106781186547));
#398=DIRECTION('ref_axis',(-0.707106781186547,0.,0.707106781186548));
#399=DIRECTION('',(0.,0.,-1.));
#400=DIRECTION('center_axis',(-0.707106781186548,0.,0.707106781186547));
#401=DIRECTION('ref_axis',(-0.707106781186547,0.,-0.707106781186548));
#402=DIRECTION('center_axis',(0.,0.,1.));
#403=DIRECTION('ref_axis',(-0.707106781186547,-0.707106781186548,0.));
#404=DIRECTION('',(0.,0.,-1.));
#405=DIRECTION('center_axis',(-0.707106781186548,0.,-0.707106781186547));
#406=DIRECTION('ref_axis',(0.707106781186547,0.,-0.707106781186548));
#407=DIRECTION('center_axis',(-0.707106781186548,0.,0.707106781186547));
#408=DIRECTION('ref_axis',(-0.707106781186547,0.,-0.707106781186548));
#409=DIRECTION('center_axis',(1.,0.,0.));
#410=DIRECTION('ref_axis',(0.,-0.707106781186548,0.707106781186548));
#411=DIRECTION('',(1.,0.,0.));
#412=DIRECTION('',(-1.,0.,0.));
#413=DIRECTION('center_axis',(-1.,0.,0.));
#414=DIRECTION('ref_axis',(0.,-0.707106781186548,-0.707106781186548));
#415=DIRECTION('',(1.,0.,0.));
#416=DIRECTION('center_axis',(0.,1.,0.));
#417=DIRECTION('ref_axis',(0.,0.,1.));
#418=DIRECTION('',(-1.,0.,0.));
#419=DIRECTION('',(0.,0.,1.));
#420=DIRECTION('',(1.,0.,0.));
#421=DIRECTION('',(0.,0.,-1.));
#422=DIRECTION('center_axis',(-1.,0.,0.));
#423=DIRECTION('ref_axis',(0.,0.,1.));
#424=DIRECTION('',(0.,1.,0.));
#425=DIRECTION('center_axis',(0.,0.,-1.));
#426=DIRECTION('ref_axis',(-1.,0.,0.));
#427=DIRECTION('center_axis',(1.,0.,0.));
#428=DIRECTION('ref_axis',(0.,0.,-1.));
#429=DIRECTION('',(0.,0.,1.));
#430=DIRECTION('',(0.,1.,0.));
#431=DIRECTION('',(0.,1.,0.));
#432=DIRECTION('center_axis',(0.,0.,1.));
#433=DIRECTION('ref_axis',(1.,0.,0.));
#434=DIRECTION('',(-1.,0.,0.));
#435=DIRECTION('',(0.,1.,0.));
#436=DIRECTION('center_axis',(-1.,0.,0.));
#437=DIRECTION('ref_axis',(0.,0.,1.));
#438=DIRECTION('',(0.,0.,-1.));
#439=DIRECTION('',(0.,1.,0.));
#440=DIRECTION('center_axis',(0.,0.,-1.));
#441=DIRECTION('ref_axis',(-1.,0.,0.));
#442=DIRECTION('',(1.,0.,0.));
#443=DIRECTION('center_axis',(0.,1.,0.));
#444=DIRECTION('ref_axis',(1.,0.,0.));
#445=CARTESIAN_POINT('',(0.,0.,0.));
#446=CARTESIAN_POINT('Origin',(-0.0298175044414728,6.10327780786685,0.5));
#447=CARTESIAN_POINT('',(0.970182495558527,6.10327780786685,-0.75));
#448=CARTESIAN_POINT('Origin',(-0.0298175044414728,6.10327780786685,-0.75));
#449=CARTESIAN_POINT('',(0.970182495558527,6.10327780786685,0.75));
#450=CARTESIAN_POINT('',(0.970182495558527,6.10327780786685,0.5));
#451=CARTESIAN_POINT('Origin',(-0.0298175044414728,6.10327780786685,0.75));
#452=CARTESIAN_POINT('Origin',(-1.,3.5,-0.375));
#453=CARTESIAN_POINT('',(-6.,3.5,0.75));
#454=CARTESIAN_POINT('',(-1.,8.5,0.75));
#455=CARTESIAN_POINT('Origin',(-1.,3.5,0.75));
#456=CARTESIAN_POINT('',(-1.,8.5,-0.75));
#457=CARTESIAN_POINT('',(-1.,8.5,-0.375));
#458=CARTESIAN_POINT('',(-6.,3.5,-0.75));
#459=CARTESIAN_POINT('Origin',(-1.,3.5,-0.75));
#460=CARTESIAN_POINT('',(-6.,3.5,-0.375));
#461=CARTESIAN_POINT('Origin',(0.,8.5,0.));
#462=CARTESIAN_POINT('',(1.,8.5,0.75));
#463=CARTESIAN_POINT('',(-6.,8.5,0.75));
#464=CARTESIAN_POINT('',(1.,8.5,-0.75));
#465=CARTESIAN_POINT('',(1.,8.5,0.375));
#466=CARTESIAN_POINT('',(6.,8.5,-0.75));
#467=CARTESIAN_POINT('Origin',(-6.,0.,0.75));
#468=CARTESIAN_POINT('',(-6.,2.5,0.75));
#469=CARTESIAN_POINT('',(-6.,0.,0.75));
#470=CARTESIAN_POINT('',(6.,2.5,0.75));
#471=CARTESIAN_POINT('',(-3.,2.5,0.75));
#472=CARTESIAN_POINT('',(6.,3.5,0.75));
#473=CARTESIAN_POINT('',(6.,0.,0.75));
#474=CARTESIAN_POINT('Origin',(1.,3.5,0.75));
#475=CARTESIAN_POINT('Origin',(1.,3.5,0.375));
#476=CARTESIAN_POINT('',(6.,3.5,-0.75));
#477=CARTESIAN_POINT('Origin',(1.,3.5,-0.75));
#478=CARTESIAN_POINT('',(6.,3.5,0.375));
#479=CARTESIAN_POINT('Origin',(6.,0.,0.75));
#480=CARTESIAN_POINT('',(6.,2.5,-0.75));
#481=CARTESIAN_POINT('',(6.,2.5,0.375));
#482=CARTESIAN_POINT('',(6.,0.,-0.75));
#483=CARTESIAN_POINT('Origin',(-8.,2.5,-0.375));
#484=CARTESIAN_POINT('',(-8.,0.5,-2.75));
#485=CARTESIAN_POINT('',(-8.,0.5,2.75));
#486=CARTESIAN_POINT('',(-8.,0.5,-0.375));
#487=CARTESIAN_POINT('Origin',(-8.,2.5,2.75));
#488=CARTESIAN_POINT('',(-6.,2.5,-0.75));
#489=CARTESIAN_POINT('',(-6.,2.5,-0.375));
#490=CARTESIAN_POINT('Origin',(-8.,2.5,-2.75));
#491=CARTESIAN_POINT('Origin',(8.,2.5,0.375));
#492=CARTESIAN_POINT('',(8.,0.5,2.75));
#493=CARTESIAN_POINT('',(8.,0.5,-2.75));
#494=CARTESIAN_POINT('',(8.,0.5,0.375));
#495=CARTESIAN_POINT('Origin',(8.,2.5,-2.75));
#496=CARTESIAN_POINT('Origin',(8.,2.5,2.75));
#497=CARTESIAN_POINT('Origin',(3.,2.5,-2.75));
#498=CARTESIAN_POINT('',(3.,2.5,-0.75));
#499=CARTESIAN_POINT('',(3.,0.5,-2.75));
#500=CARTESIAN_POINT('Origin',(-3.,2.5,2.75));
#501=CARTESIAN_POINT('',(-3.,0.5,2.75));
#502=CARTESIAN_POINT('Origin',(0.,0.5,0.));
#503=CARTESIAN_POINT('',(10.,0.5,-4.));
#504=CARTESIAN_POINT('',(-10.,0.5,-4.));
#505=CARTESIAN_POINT('',(-10.,0.5,-4.));
#506=CARTESIAN_POINT('',(-10.,0.5,4.));
#507=CARTESIAN_POINT('',(-10.,0.5,4.));
#508=CARTESIAN_POINT('',(10.,0.5,4.));
#509=CARTESIAN_POINT('',(10.,0.5,4.));
#510=CARTESIAN_POINT('',(10.,0.5,-4.));
#511=CARTESIAN_POINT('Origin',(-6.,0.,-0.75));
#512=CARTESIAN_POINT('',(-6.,0.,-0.75));
#513=CARTESIAN_POINT('Origin',(6.,0.,-0.75));
#514=CARTESIAN_POINT('Origin',(10.,0.,4.));
#515=CARTESIAN_POINT('',(10.,0.,-4.));
#516=CARTESIAN_POINT('',(10.,0.,4.));
#517=CARTESIAN_POINT('',(10.,0.,-4.));
#518=CARTESIAN_POINT('',(10.,0.,-4.));
#519=CARTESIAN_POINT('',(10.,0.,4.));
#520=CARTESIAN_POINT('Origin',(-10.,0.,4.));
#521=CARTESIAN_POINT('',(-10.,0.,4.));
#522=CARTESIAN_POINT('',(10.,0.,4.));
#523=CARTESIAN_POINT('',(-10.,0.,4.));
#524=CARTESIAN_POINT('Origin',(-10.,0.,-4.));
#525=CARTESIAN_POINT('',(-10.,0.,-4.));
#526=CARTESIAN_POINT('',(-10.,0.,4.));
#527=CARTESIAN_POINT('',(-10.,0.,-4.));
#528=CARTESIAN_POINT('Origin',(10.,0.,-4.));
#529=CARTESIAN_POINT('',(-10.,0.,-4.));
#530=CARTESIAN_POINT('Origin',(0.,0.,0.));
#531=UNCERTAINTY_MEASURE_WITH_UNIT(LENGTH_MEASURE(0.01),#535,
'DISTANCE_ACCURACY_VALUE',
'Maximum model space distance between geometric entities at asserted c
onnectivities');
#532=UNCERTAINTY_MEASURE_WITH_UNIT(LENGTH_MEASURE(0.01),#535,
'DISTANCE_ACCURACY_VALUE',
'Maximum model space distance between geometric entities at asserted c
onnectivities');
#533=(
GEOMETRIC_REPRESENTATION_CONTEXT(3)
GLOBAL_UNCERTAINTY_ASSIGNED_CONTEXT((#531))
GLOBAL_UNIT_ASSIGNED_CONTEXT((#535,#537,#538))
REPRESENTATION_CONTEXT('','3D')
);
#534=(
GEOMETRIC_REPRESENTATION_CONTEXT(3)
GLOBAL_UNCERTAINTY_ASSIGNED_CONTEXT((#532))
GLOBAL_UNIT_ASSIGNED_CONTEXT((#535,#537,#538))
REPRESENTATION_CONTEXT('','3D')
);
#535=(
LENGTH_UNIT()
NAMED_UNIT(*)
SI_UNIT(.MILLI.,.METRE.)
);
#536=(
LENGTH_UNIT()
NAMED_UNIT(*)
SI_UNIT($,.METRE.)
);
#537=(
NAMED_UNIT(*)
PLANE_ANGLE_UNIT()
SI_UNIT($,.RADIAN.)
);
#538=(
NAMED_UNIT(*)
SI_UNIT($,.STERADIAN.)
SOLID_ANGLE_UNIT()
);
#539=SHAPE_DEFINITION_REPRESENTATION(#540,#541);
#540=PRODUCT_DEFINITION_SHAPE('',$,#543);
#541=SHAPE_REPRESENTATION('',(#327),#533);
#542=PRODUCT_DEFINITION_CONTEXT('part definition',#547,'design');
#543=PRODUCT_DEFINITION('new_hinge','new_hinge v2',#544,#542);
#544=PRODUCT_DEFINITION_FORMATION('',$,#549);
#545=PRODUCT_RELATED_PRODUCT_CATEGORY('new_hinge v2','new_hinge v2',(#549));
#546=APPLICATION_PROTOCOL_DEFINITION('international standard',
'automotive_design',2009,#547);
#547=APPLICATION_CONTEXT(
'Core Data for Automotive Mechanical Design Process');
#548=PRODUCT_CONTEXT('part definition',#547,'mechanical');
#549=PRODUCT('new_hinge','new_hinge v2',$,(#548));
#550=PRESENTATION_STYLE_ASSIGNMENT((#551));
#551=SURFACE_STYLE_USAGE(.BOTH.,#552);
#552=SURFACE_SIDE_STYLE('',(#553));
#553=SURFACE_STYLE_FILL_AREA(#554);
#554=FILL_AREA_STYLE('Steel - Satin',(#555));
#555=FILL_AREA_STYLE_COLOUR('Steel - Satin',#556);
#556=COLOUR_RGB('Steel - Satin',0.627450980392157,0.627450980392157,0.627450980392157);
ENDSEC;
END-ISO-10303-21;
